<?xml version="1.0" standalone="no"?>
<!DOCTYPE svg PUBLIC "-//W3C//DTD SVG 20010904//EN"
 "http://www.w3.org/TR/2001/REC-SVG-20010904/DTD/svg10.dtd">
<svg version="1.0" xmlns="http://www.w3.org/2000/svg"
 width="1275.000000pt" height="1651.000000pt" viewBox="0 0 1275.000000 1651.000000"
 preserveAspectRatio="xMidYMid meet">
<metadata>
Created by potrace 1.16, written by Peter Selinger 2001-2019
</metadata>
<g transform="translate(0.000000,1651.000000) scale(0.100000,-0.100000)"
fill="#000000" stroke="none">
<path d="M1840 14870 c0 -47 4 -80 10 -80 6 0 10 17 10 38 0 41 15 63 36 55 9
-3 14 -21 14 -49 0 -24 5 -44 10 -44 12 0 13 80 1 99 -5 8 -19 12 -35 9 -23
-5 -26 -2 -26 23 0 16 -4 29 -10 29 -6 0 -10 -33 -10 -80z"/>
<path d="M2267 14943 c-4 -3 -7 -15 -7 -25 0 -12 -7 -18 -23 -18 -32 0 -47
-18 -47 -56 0 -39 17 -54 58 -51 l32 2 0 78 c0 77 -1 83 -13 70z m-9 -93 c4
-36 -14 -56 -35 -38 -16 13 -17 50 -1 66 19 19 33 9 36 -28z"/>
<path d="M2316 14942 c-3 -6 -1 -14 5 -17 15 -10 25 3 12 16 -7 7 -13 7 -17 1z"/>
<path d="M1518 14934 c-12 -11 -10 -144 2 -144 6 0 10 13 10 29 0 44 15 46 40
6 12 -19 26 -35 31 -35 14 0 11 9 -12 41 -21 30 -19 58 6 79 8 7 15 16 15 21
0 19 -18 7 -43 -28 -27 -38 -33 -35 -39 15 -2 13 -6 20 -10 16z"/>
<path d="M1630 14858 c0 -57 9 -68 53 -66 l37 1 0 54 c0 29 -4 53 -10 53 -5 0
-10 -20 -10 -44 0 -31 -5 -46 -16 -50 -26 -10 -34 2 -34 50 0 24 -4 44 -10 44
-5 0 -10 -19 -10 -42z"/>
<path d="M1757 14893 c-15 -15 -5 -44 18 -55 30 -13 27 -34 -4 -31 -11 2 -21
-2 -21 -7 0 -16 46 -11 61 6 12 14 10 19 -15 39 -28 23 -29 49 -1 38 8 -3 15
0 15 6 0 12 -42 15 -53 4z"/>
<path d="M1960 14824 c0 -43 4 -74 10 -74 6 0 10 11 10 24 0 19 4 22 24 19 34
-7 63 37 50 75 -8 23 -16 27 -52 28 l-42 2 0 -74z m64 50 c9 -8 16 -22 16 -29
0 -21 -29 -45 -45 -39 -18 7 -20 55 -3 72 15 15 13 15 32 -4z"/>
<path d="M2083 14874 c-15 -24 -15 -29 -2 -53 16 -29 49 -38 76 -21 15 10 14
10 -9 6 -18 -4 -32 0 -44 11 -17 17 -16 18 24 21 32 2 42 7 42 21 0 45 -60 56
-87 15z m67 -5 c0 -5 -11 -9 -25 -9 -26 0 -34 15 -12 23 16 5 37 -3 37 -14z"/>
<path d="M2320 14845 c0 -30 5 -55 10 -55 6 0 10 25 10 55 0 30 -4 55 -10 55
-5 0 -10 -25 -10 -55z"/>
<path d="M2374 14889 c-3 -6 1 -10 12 -9 54 6 62 -21 12 -35 -23 -7 -33 -16
-33 -30 0 -17 7 -20 43 -21 l42 -2 0 42 c0 23 -5 47 -12 54 -15 15 -55 16 -64
1z m56 -63 c0 -18 -31 -29 -44 -16 -8 8 -7 14 4 20 22 14 40 12 40 -4z"/>
</g>
</svg>
